<svg id="visual" viewBox="0 0 900 600" width="900" height="600" xmlns="http://www.w3.org/2000/svg" xmlns:xlink="http://www.w3.org/1999/xlink" version="1.1"><rect x="0" y="0" width="900" height="600" fill="#76dff0"></rect><path d="M0 352L21.5 364.5C43 377 86 402 128.8 410.3C171.7 418.7 214.3 410.3 257.2 420.7C300 431 343 460 385.8 483.7C428.7 507.3 471.3 525.7 514.2 508.2C557 490.7 600 437.3 642.8 415.8C685.7 394.3 728.3 404.7 771.2 427.2C814 449.7 857 484.3 878.5 501.7L900 519L900 601L878.5 601C857 601 814 601 771.2 601C728.3 601 685.7 601 642.8 601C600 601 557 601 514.2 601C471.3 601 428.7 601 385.8 601C343 601 300 601 257.2 601C214.3 601 171.7 601 128.8 601C86 601 43 601 21.5 601L0 601Z" fill="#0066FF" stroke-linecap="round" stroke-linejoin="miter"></path></svg>